<svg id="Layer_1" data-name="Layer 1" xmlns="http://www.w3.org/2000/svg" viewBox="0 0 24 24"><defs><style>.cls-1{fill:#fff;}.cls-2{fill:#f90b0b;}</style></defs><rect class="cls-1" width="24" height="24"/><path class="cls-2" d="M12,0C6.65,0,3,1.92,3,3.65S6.69,7.29,12,7.29s9.05-1.92,9.05-3.64S17.35,0,12,0Zm9.05,6.45c-1.6,1.28-3.48,1.72-7.33,2.65C8.41,10.34,2.93,11.62,2.93,16.63v.56c2-1.73,5.6-2.53,9.13-3.33h0c4.41-1,9-2,9-4.6Zm0,5.85c-1.92,1.56-5.32,2.32-8.69,3.09-4.65,1-9.45,2.12-9.45,5,0,.64.52,1.33,1.48,1.93,1.92-1.29,4.93-2,7.81-2.69,4.37-1,8.85-2.12,8.85-4.81Zm0,5.65c-1.88,1.6-5.24,2.4-8.49,3.16a33.14,33.14,0,0,0-6.45,2A17.5,17.5,0,0,0,12,24c5.29,0,9.05-1.88,9.05-3.65Z"/></svg>